<?xml version="1.0" encoding="utf-8"?>
<!-- Generator: Adobe Illustrator 23.0.1, SVG Export Plug-In . SVG Version: 6.00 Build 0)  -->
<svg version="1.1" id="Layer_1" xmlns="http://www.w3.org/2000/svg" xmlns:xlink="http://www.w3.org/1999/xlink" x="0px" y="0px"
	 viewBox="0 0 100 100" style="enable-background:new 0 0 100 100;" xml:space="preserve">
<style type="text/css">
	.st0{fill:#6C826E;}
</style>
<g>
	<g>
		<path class="st0" d="M81.975,36.611c0.036-0.741,0.056-1.486,0.056-2.237c0-3.231-2.629-5.859-5.859-5.859H5.859
			C2.629,28.515,0,31.144,0,34.374c0,11.542,4.432,21.915,8.718,31.946c2.46,5.759,4.799,11.236,6.35,16.882h-1.396
			c-3.231,0-5.859,2.629-5.859,5.859s2.629,5.859,5.859,5.859h54.688c3.231,0,5.859-2.629,5.859-5.859s-2.629-5.859-5.859-5.859
			h-1.396c0.36-1.309,0.761-2.61,1.197-3.906h10.355c11.846,0,21.484-9.638,21.484-21.484C100,47.271,92.217,38.288,81.975,36.611
			L81.975,36.611z M80.074,48.175c4.634,0.756,8.207,4.821,8.207,9.637c0,5.385-4.381,9.766-9.766,9.766h-5.739
			c0.178-0.418,0.357-0.836,0.537-1.257C75.824,60.445,78.383,54.451,80.074,48.175L80.074,48.175z M49.804,83.203
			c-1.079,0-1.953,0.875-1.953,1.953s0.874,1.953,1.953,1.953h18.555c1.077,0,1.953,0.876,1.953,1.953
			c0,1.077-0.876,1.953-1.953,1.953H13.672c-1.077,0-1.953-0.876-1.953-1.953c0-1.077,0.876-1.953,1.953-1.953h18.554
			c1.079,0,1.953-0.875,1.953-1.953s-0.874-1.953-1.953-1.953H19.11c-1.628-6.308-4.254-12.457-6.8-18.417
			c-4.131-9.67-8.404-19.669-8.404-30.412c0-1.077,0.876-1.953,1.953-1.953h70.312c1.077,0,1.953,0.876,1.953,1.953
			c0,10.743-4.272,20.742-8.404,30.412c-2.546,5.96-5.173,12.109-6.801,18.417H49.804z M78.516,75.39h-8.944
			c0.497-1.298,1.02-2.598,1.56-3.906h7.383c7.539,0,13.672-6.133,13.672-13.672c0-6.645-4.86-12.269-11.211-13.443
			c0.26-1.272,0.478-2.557,0.647-3.855c8.243,1.487,14.471,8.77,14.471,17.299C96.094,67.504,88.208,75.39,78.516,75.39z"/>
		<path class="st0" d="M41.109,48.589c-0.039,0.039-0.093,0.093-0.186,0v0c-2.952-2.943-7.754-2.943-10.706,0
			c-2.061,2.054-2.726,4.727-1.923,7.729c1.624,6.069,8.897,11.967,12.218,12.854c0.165,0.044,0.335,0.066,0.504,0.066
			c0.17,0,0.339-0.022,0.504-0.066c3.321-0.887,10.594-6.784,12.218-12.854c0.803-3.002,0.138-5.675-1.923-7.729
			C48.863,45.647,44.06,45.647,41.109,48.589L41.109,48.589z M49.964,55.309c-1.149,4.294-6.504,8.834-8.948,9.906
			c-2.444-1.072-7.799-5.612-8.948-9.906c-0.439-1.642-0.151-2.898,0.907-3.953c0.715-0.713,1.655-1.07,2.595-1.07
			c0.94,0,1.88,0.357,2.595,1.07v0c1.599,1.593,4.103,1.593,5.701,0c1.431-1.426,3.759-1.426,5.19,0
			C50.115,52.411,50.403,53.667,49.964,55.309L49.964,55.309z"/>
		<path class="st0" d="M39.402,21.582c-0.593,0.901-0.342,2.112,0.559,2.705c0.331,0.217,0.703,0.321,1.071,0.321
			c0.635,0,1.259-0.31,1.634-0.88c3.48-5.293,1.332-8.129-0.088-10.005c-1.245-1.644-1.93-2.549,0.088-5.619
			c0.593-0.901,0.342-2.112-0.559-2.705c-0.901-0.593-2.112-0.342-2.705,0.559c-3.534,5.375-1.37,8.232,0.061,10.123
			C40.73,17.755,41.366,18.595,39.402,21.582L39.402,21.582z"/>
		<path class="st0" d="M23.776,21.582c-0.593,0.901-0.342,2.112,0.559,2.705c0.331,0.217,0.703,0.321,1.071,0.321
			c0.635,0,1.259-0.31,1.634-0.88c3.48-5.293,1.333-8.129-0.088-10.005c-1.245-1.644-1.93-2.549,0.088-5.619
			c0.593-0.901,0.342-2.112-0.559-2.705c-0.901-0.593-2.113-0.342-2.705,0.559c-3.534,5.375-1.37,8.232,0.061,10.123
			C25.104,17.755,25.741,18.595,23.776,21.582z"/>
		<path class="st0" d="M55.027,21.582c-0.593,0.901-0.342,2.112,0.559,2.705c0.331,0.217,0.703,0.321,1.071,0.321
			c0.636,0,1.259-0.31,1.634-0.88c3.48-5.293,1.333-8.129-0.088-10.005c-1.245-1.644-1.93-2.549,0.088-5.619
			c0.593-0.901,0.342-2.112-0.559-2.705c-0.901-0.593-2.112-0.342-2.705,0.559c-3.534,5.375-1.371,8.232,0.061,10.123
			C56.356,17.755,56.992,18.595,55.027,21.582L55.027,21.582z"/>
		<path class="st0" d="M41.016,83.203h-0.001c-1.079,0-1.952,0.875-1.952,1.953s0.875,1.953,1.954,1.953s1.953-0.875,1.953-1.953
			S42.094,83.203,41.016,83.203z"/>
	</g>
</g>
</svg>
